<svg id="Layer_1" data-name="Layer 1" xmlns="http://www.w3.org/2000/svg" viewBox="0 0 1047.07 542.05"><defs><style>.cls-1{fill:#6acbdd;}.cls-2{fill:#d35527;}.cls-3{fill:#32a58f;}.cls-4{fill:#54c2b3;}.cls-5{fill:#73c2b3;}.cls-6{fill:#da7343;}.cls-7{fill:#f26624;}.cls-8{fill:#36b49f;}.cls-9{fill:#7eaa40;}.cls-10{fill:#f58c73;}.cls-11{fill:#fff;}.cls-12{fill:#424143;}.cls-13{fill:#d86d3c;}.cls-14{fill:#f9b1a3;}.cls-15{fill:#ddd;}.cls-16{fill:#484749;}.cls-17{fill:#62c8d1;}.cls-18{fill:#5f5f60;}.cls-19{fill:#59595b;}.cls-20{fill:#f69178;}.cls-21{fill:#8fc640;}.cls-22{fill:#464547;}.cls-23{fill:#616163;}</style></defs><path class="cls-1" d="M128.45,728c.05,0,944.81-.11,944.81-.11s2.73-5.6,6.16-12.92c2.53-5.43,5.67-12.64,8.93-21.31h0c.61-1.61,1.23-3.28,1.84-5q1.29-3.6,2.57-7.49c.32-1,.63-1.93,1-2.91,1.89-5.9,3.72-12.23,5.42-18.93.12-.46.24-.93.35-1.41.64-2.56,1.25-5.18,1.84-7.84.32-1.48.64-3,1-4.49l.06-.31c.12-.56.23-1.12.34-1.69a277.69,277.69,0,0,0,4.61-34.2c.14-2.11.27-4.24.36-6.38s.17-4.33.21-6.52a227.19,227.19,0,0,0-3-42c-.94-5.61-2.11-11.26-3.55-16.93q-1.58-6.21-3.59-12.43c-.25-.78-.5-1.55-.76-2.33a198.14,198.14,0,0,0-11.7-27.66c-.42-.83-.85-1.66-1.29-2.48a206.53,206.53,0,0,0-12.06-19.81c-.46-.67-.93-1.34-1.4-2q-3.94-5.6-8.4-11.1-6.48-8-14.11-15.86-10.56-10.83-21-19.7c-2.84-2.45-5.68-4.78-8.51-7q-3.63-2.89-7.24-5.54l-.41-.3q-8.35-6.13-16.56-11.14c-1.12-.69-2.23-1.36-3.34-2q-8.06-4.75-16-8.5c-1.15-.55-2.29-1.09-3.44-1.61-36-16.38-69.36-18.52-98.88-15.8-22.82,2.1-43.34,7.1-61,10.67l-3.44.68c-11.49,2.23-21.7,3.7-30.45,3.13-14-.91-25.37-9.4-37.62-21.92-.89-.92-1.79-1.85-2.69-2.8-7.14-7.54-14.64-16.34-23.16-25.7-1.55-1.71-3.15-3.44-4.78-5.18-3.22-3.44-6.58-6.95-10.13-10.48L697.82,319q-1.8-1.77-3.66-3.54l-1.66-1.56c-4-3.78-8.28-7.56-12.8-11.32a256.19,256.19,0,0,0-76.15-43.76h0a318.88,318.88,0,0,0-45.35-12.93A478.64,478.64,0,0,0,500,237.46c-4.86-.4-9.76-.74-14.67-1q-7.92-.42-15.88-.59-4.77-.1-9.55-.1-11.82,0-23.6.57-4.17.21-8.32.5c-33.9,2.38-66.56,8.8-94.12,20.27-19.33,8-92.16,44-113.52,104.86-6.75,19.2-8.37,40.89-1.57,64.95,24.09,85.16-12.58,95.76-58.46,136.34C99.05,617.42,79.34,690.5,128.45,728Z" transform="translate(-67.66 -187.36)"/><rect class="cls-2" x="101.34" y="217.9" width="202.4" height="118.87"/><rect class="cls-3" x="683.45" y="194.32" width="232.01" height="347.73"/><rect class="cls-3" x="303.72" y="171.88" width="277.56" height="369.31"/><rect class="cls-2" x="292.65" y="48.04" width="396.78" height="180.12"/><polygon class="cls-3" points="503.8 204.88 712.4 7.66 920.99 204.88 503.8 204.88"/><path class="cls-2" d="M1005.55,411.62a7.6,7.6,0,0,1-5.2-2L780.06,217.93c-70.17,63.88-151.67,125.41-154.12,127a7.66,7.66,0,0,1-8.85-12.49c5-4.18,97-87.73,157.81-143.13a7.68,7.68,0,0,1,10.37,0l225.49,209a7.66,7.66,0,0,1-5.21,13.28Z" transform="translate(-67.66 -187.36)"/><rect class="cls-4" x="442.5" y="171.88" width="277.56" height="369.31"/><polygon class="cls-4" points="442.5 171.88 581.28 40.66 720.06 171.88 442.5 171.88"/><path class="cls-1" d="M689.09,402.75v71.47H607.56V404.13A41.21,41.21,0,0,1,621,373.58a36.24,36.24,0,0,1,4.24-3.37,32.65,32.65,0,0,1,4.54-2.81A41,41,0,0,1,649,362.7a39,39,0,0,1,19.11,4.9,25.59,25.59,0,0,1,4.54,2.86,36.27,36.27,0,0,1,3.83,3.12A39.92,39.92,0,0,1,689.09,402.75Z" transform="translate(-67.66 -187.36)"/><path class="cls-3" d="M690.44,392H606.53l1.3-3.45a43.75,43.75,0,0,1,11.45-16.88,38.78,38.78,0,0,1,4.51-3.58,33.06,33.06,0,0,1,4.82-3,43.89,43.89,0,0,1,20.38-5,41.33,41.33,0,0,1,20.35,5.23,28,28,0,0,1,4.88,3.08,38.29,38.29,0,0,1,4,3.25,42.85,42.85,0,0,1,11,16.92Zm-76.34-5.11h68.95a38.47,38.47,0,0,0-8.33-11.48,33.86,33.86,0,0,0-3.54-2.87,22.86,22.86,0,0,0-4.2-2.66,36.33,36.33,0,0,0-18-4.65,38.72,38.72,0,0,0-18,4.41,28.94,28.94,0,0,0-4.19,2.59,34.28,34.28,0,0,0-4,3.21A39,39,0,0,0,614.1,386.91Z" transform="translate(-67.66 -187.36)"/><rect class="cls-1" x="501" y="202.13" width="159.34" height="84.72"/><rect class="cls-3" x="578.12" y="202.13" width="5.11" height="84.72"/><rect class="cls-3" x="502.88" y="228.14" width="153.97" height="2.55"/><rect class="cls-3" x="502.88" y="255.98" width="153.97" height="2.55"/><rect class="cls-3" x="542.68" y="202.13" width="5.11" height="84.72"/><rect class="cls-5" x="613.56" y="202.13" width="5.11" height="84.72"/><rect class="cls-5" x="655.24" y="202.13" width="5.11" height="84.72"/><rect class="cls-3" x="501" y="202.13" width="5.11" height="84.72"/><rect class="cls-3" x="501.01" y="281.74" width="159.34" height="5.11"/><rect class="cls-3" x="501.01" y="202.13" width="159.34" height="5.11"/><path class="cls-3" d="M672.64,370.46,648.58,396l-23.34-25.75a32.65,32.65,0,0,1,4.54-2.81l18.85,20.79L668.1,367.6A25.59,25.59,0,0,1,672.64,370.46Z" transform="translate(-67.66 -187.36)"/><rect class="cls-1" x="501" y="372.09" width="159.34" height="84.72"/><rect class="cls-3" x="578.12" y="372.08" width="5.11" height="84.72"/><rect class="cls-3" x="502.88" y="398.1" width="153.97" height="2.55"/><rect class="cls-3" x="502.88" y="425.94" width="153.97" height="2.55"/><rect class="cls-3" x="542.68" y="372.08" width="5.11" height="84.72"/><rect class="cls-5" x="613.56" y="372.08" width="5.11" height="84.72"/><rect class="cls-5" x="655.24" y="372.08" width="5.11" height="84.72"/><rect class="cls-3" x="501" y="372.08" width="5.11" height="84.72"/><rect class="cls-3" x="501.01" y="451.69" width="159.34" height="5.11"/><rect class="cls-3" x="501.01" y="372.08" width="159.34" height="5.11"/><rect class="cls-1" x="341.65" y="372.09" width="70.62" height="84.72"/><rect class="cls-4" x="407.89" y="372.08" width="4.39" height="84.72"/><rect class="cls-4" x="342.49" y="398.1" width="68.24" height="2.55"/><rect class="cls-4" x="342.49" y="425.94" width="68.24" height="2.55"/><rect class="cls-4" x="374.41" y="372.08" width="4.39" height="84.72"/><rect class="cls-5" x="341.65" y="372.08" width="4.39" height="84.72"/><rect class="cls-5" x="341.66" y="451.69" width="70.62" height="5.11"/><rect class="cls-5" x="341.66" y="372.08" width="70.62" height="5.11"/><rect class="cls-1" x="341.65" y="250.77" width="70.62" height="84.72"/><rect class="cls-5" x="407.89" y="250.76" width="4.39" height="84.72"/><rect class="cls-4" x="342.49" y="276.78" width="68.24" height="2.55"/><rect class="cls-4" x="342.49" y="304.62" width="68.24" height="2.55"/><rect class="cls-4" x="374.41" y="250.76" width="4.39" height="84.72"/><rect class="cls-5" x="341.65" y="250.76" width="4.39" height="84.72"/><rect class="cls-4" x="341.66" y="330.38" width="70.62" height="5.11"/><rect class="cls-4" x="341.66" y="250.76" width="70.62" height="5.11"/><rect class="cls-1" x="781.25" y="185.79" width="70.62" height="84.72"/><rect class="cls-4" x="847.49" y="185.78" width="4.39" height="84.72"/><rect class="cls-4" x="782.09" y="211.8" width="68.24" height="2.55"/><rect class="cls-4" x="782.09" y="239.64" width="68.24" height="2.55"/><rect class="cls-4" x="814.01" y="185.78" width="4.39" height="84.72"/><rect class="cls-5" x="781.25" y="185.78" width="4.39" height="84.72"/><rect class="cls-5" x="781.26" y="265.4" width="70.62" height="5.11"/><rect class="cls-5" x="781.26" y="185.78" width="70.62" height="5.11"/><path class="cls-6" d="M490.58,379.27A7.67,7.67,0,0,1,486,365.48c5-4.17,97-87.72,157.81-143.13a7.69,7.69,0,0,1,10.37.05L809.1,366a7.66,7.66,0,0,1-10.41,11.25L647.23,254.32c-65.72,56.48-150,122-152.41,123.66A7.61,7.61,0,0,1,490.58,379.27Z" transform="translate(-67.66 -187.36)"/><rect class="cls-4" x="112.66" y="336.79" width="191.06" height="203.01"/><rect class="cls-2" x="720.08" y="284.92" width="205.05" height="81.53"/><path class="cls-7" d="M800.26,394.12h9a32.31,32.31,0,0,1,32.31,32.31v93a0,0,0,0,1,0,0h-74a0,0,0,0,1,0,0V426.81A32.69,32.69,0,0,1,800.26,394.12Z"/><path class="cls-1" d="M902.17,619.2v1.63H842.25V619.5A28.76,28.76,0,0,1,871,590.74h2.71A28.43,28.43,0,0,1,902.17,619.2Z" transform="translate(-67.66 -187.36)"/><rect class="cls-1" x="774.59" y="442.76" width="59.92" height="24.08"/><rect class="cls-1" x="774.59" y="474.79" width="59.92" height="39.36"/><rect class="cls-7" x="749.17" y="518.11" width="110.79" height="7.98"/><rect class="cls-7" x="739.79" y="526.09" width="129.54" height="7.98"/><rect class="cls-7" x="732.09" y="534.07" width="144.93" height="7.98"/><rect class="cls-1" x="164.93" y="374.07" width="96.54" height="115.82"/><rect class="cls-3" x="255.48" y="374.07" width="6" height="115.82"/><rect class="cls-3" x="166.07" y="409.64" width="93.29" height="3.49"/><rect class="cls-3" x="166.07" y="447.7" width="93.29" height="3.49"/><rect class="cls-3" x="209.72" y="374.07" width="6" height="115.82"/><rect class="cls-3" x="164.93" y="374.07" width="6" height="115.82"/><rect class="cls-3" x="164.94" y="482.91" width="96.54" height="6.98"/><rect class="cls-3" x="164.94" y="374.07" width="96.54" height="6.98"/><polygon class="cls-6" points="238.6 336.77 101.34 336.77 101.34 217.9 185.78 217.9 238.6 336.77"/><path class="cls-6" d="M468.35,415.52h-108V235.4h40.61C412.52,267.48,448.07,361.83,468.35,415.52Z" transform="translate(-67.66 -187.36)"/><polygon class="cls-6" points="925.13 284.92 925.13 366.45 789.45 366.45 843.29 284.92 925.13 284.92"/><path class="cls-8" d="M412.55,37.79h11.82a4.89,4.89,0,0,1,4.89,4.89V86.79a0,0,0,0,1,0,0H407.57a0,0,0,0,1,0,0v-44A5,5,0,0,1,412.55,37.79Z"/><polygon class="cls-2" points="402.48 33.16 434.09 33.16 418.41 18.21 402.48 33.16"/><polygon class="cls-2" points="411.74 37.79 410.33 37.79 410.12 32.74 412.05 32.74 411.74 37.79"/><polygon class="cls-2" points="426.23 37.79 424.82 37.79 424.61 32.74 426.54 32.74 426.23 37.79"/><path class="cls-9" d="M1038.3,726.63h-26.44c-1.41-1.2,1-3.93,3.49-4.11a15.16,15.16,0,0,1,4,.48c.37-4.84,2.44-26.56,10.28-25.69,8.8,1,0,9.57-2.49,14.66a119,119,0,0,0-4.68,11.71c.71.16,1.45.31,2.21.45,1.17-3.58,5.51-15.64,11-14.93,6.48.82,3.88,5.65-.72,8.52-3.37,2.11-7.51,5.11-9.48,6.55a27.59,27.59,0,0,0,5.18.42C1035.23,724.58,1037.44,725.92,1038.3,726.63Z" transform="translate(-67.66 -187.36)"/><path class="cls-9" d="M371.41,656.77v70.49l-166.54,0s5.32-18.89,26.3-29.22a48.64,48.64,0,0,1,6.49-2.73,68.19,68.19,0,0,1,8.93-2.41.16.16,0,0,0,.14-.05,29.69,29.69,0,0,0,4.17-1.11c29.64-10,31-56,116.06-36.12C368.49,656,370,656.4,371.41,656.77Z" transform="translate(-67.66 -187.36)"/><path class="cls-9" d="M243.62,702.61s-25-33.16-36.14-24.22S243.62,702.61,243.62,702.61Z" transform="translate(-67.66 -187.36)"/><path class="cls-9" d="M251.08,699.26c0-1.49.37-32-10.06-29.81S251.08,699.26,251.08,699.26Z" transform="translate(-67.66 -187.36)"/><path class="cls-9" d="M485.8,726.46s11.92-25.4,38.75-25.74,41.63-31.64,66.64-30.15,28,26,45.88,30.15,67.06-4.76,70,27.25Z" transform="translate(-67.66 -187.36)"/><path class="cls-9" d="M543.55,700.72c0-.34-19.37-36.22-26.45-30.2S543.55,700.72,543.55,700.72Z" transform="translate(-67.66 -187.36)"/><path class="cls-9" d="M536.47,701.87s-17.32-10.62-25.52-8S536.47,701.87,536.47,701.87Z" transform="translate(-67.66 -187.36)"/><path class="cls-9" d="M578.76,680.07c.19-1.12-.37-29.25-9.69-25.71S578.76,680.07,578.76,680.07Z" transform="translate(-67.66 -187.36)"/><path class="cls-9" d="M584.35,674.85c.37-.56,6-15.65,1.86-15.65s-1.49,15.09-1.49,15.09Z" transform="translate(-67.66 -187.36)"/><path class="cls-10" d="M750.62,371.27s-15,7.12-18.47,6.22-16.41-3.19-18.23-2.38c0,0-2.07,3.3-.51,5.47s14.2,8.05,18.77,8.26,21.9-2.93,25.57-5.8Z" transform="translate(-67.66 -187.36)"/><path class="cls-10" d="M714.37,375.18s-5.8-2.41-7.7.28-3,5.42-2.74,6.8,4.15,2,5.72.91a38.44,38.44,0,0,1,5.45-2.57Z" transform="translate(-67.66 -187.36)"/><path class="cls-11" d="M721.86,378.33s6.71,27.09,16.61,47.34a75.48,75.48,0,0,0,9,14.68,26.61,26.61,0,0,0,4.77,4.61c16.92,12.29,43.61-7.31,43.61-7.31,1-11.92-20.64-31.91-34.45-43.85-5.43-4.69-9.65-8.14-10.83-9.38-2.29-2.39-7.18-3.83-12.28-4.71A110.78,110.78,0,0,0,721.86,378.33Z" transform="translate(-67.66 -187.36)"/><path class="cls-12" d="M686.63,713a24.38,24.38,0,0,1,3.27,11.2,2.4,2.4,0,0,1-2.41,2.42h-20a3,3,0,0,1-2.89-3.69c.93-3.66,2.92-9.18,6.91-12.54C677.9,705.05,686.63,713,686.63,713Z" transform="translate(-67.66 -187.36)"/><path class="cls-12" d="M718.23,707.7s1.15,18.52,4.73,18.79c.48,0,18.18,0,18.18,0H764s-.38-5.57-7-6.72-17.66-5.79-21.66-14.52C731.11,696.1,718.23,707.7,718.23,707.7Z" transform="translate(-67.66 -187.36)"/><path class="cls-2" d="M708.67,593.3c.8,10.29.9,18.41-.15,22.26-4.71,17.22,8.49,95,8.49,95,9.73,4.66,23.55,0,23.55,0-.84-10.77,4.28-107.21,9.05-166,2-24.7,3.49-42,3.49-42l-58.3-6.78S705.91,557.57,708.67,593.3Z" transform="translate(-67.66 -187.36)"/><path class="cls-2" d="M694.8,495.69s11.11,61.88,13.87,97.61l40.94-48.84c2-24.7,3.49-42,3.49-42Z" transform="translate(-67.66 -187.36)"/><path class="cls-13" d="M723.4,508.88S693.89,680.71,688.81,714a37.28,37.28,0,0,1-22.33-1.7s-1.46-79.85,2.4-103.9-2.06-98.41,4.17-105.33S723.4,508.88,723.4,508.88Z" transform="translate(-67.66 -187.36)"/><path class="cls-14" d="M720.36,362.36s2.27,15.27,1.27,19.83-16.16,7-22.5,3.27-4.44-5.17-4.44-5.17,1-17.48,1.86-18.73S720.36,362.36,720.36,362.36Z" transform="translate(-67.66 -187.36)"/><path class="cls-11" d="M669.63,511.29s4.26,2.5,15,4.61c7.86,1.55,19.18,2.9,34.85,2.9,28.65,0,38.08-8.17,38.08-8.17,1.54,0-5.41-39.79-5.41-73.79,0-31.44-9.21-55-25.08-57.73a45.13,45.13,0,0,0-5.18-.78c0,2.59-4.07,7.35-10.34,7.77-7.45.48-16.67-3.48-16.67-7.77,0-.2-17.37.86-22.91,32.74-1.89,10.86-2.41,25.29-.4,44.48C672.23,462.17,667.24,511.26,669.63,511.29Z" transform="translate(-67.66 -187.36)"/><path class="cls-15" d="M669.63,511.29s4.26,2.5,15,4.61c14.8-6.55,44.18-23.5,45.33-51.95,1.52-37.85-44.69-60.39-44.69-60.39s-6.2,3.44-13.3,7.51c-1.89,10.86-2.41,25.29-.4,44.48C672.23,462.17,667.24,511.26,669.63,511.29Z" transform="translate(-67.66 -187.36)"/><path class="cls-10" d="M720.6,364.08s-5.88,8.29-12.1,8.37-12.58-8.24-12.58-8.24Z" transform="translate(-67.66 -187.36)"/><path class="cls-14" d="M721.17,363.67a40,40,0,0,1-8.25,4.22,10.18,10.18,0,0,1-7,.15,96.4,96.4,0,0,1-10-3.83c-3.11-1.89-2.91-5.71-3.07-11-.2-6.29-.83-11.23-.13-14.86.84-4.34,3.59-6.81,11.29-7.48,14.14-1.22,20,2.32,20.28,7.06.06,1.27.12,2.48.16,3.63C725,356.32,723.85,361.56,721.17,363.67Z" transform="translate(-67.66 -187.36)"/><path class="cls-16" d="M724.37,339.64a5.93,5.93,0,0,0-6.66-2.07c-4.36,1.34-4.8,5.06-12.24,4.46s-9.22-4.11-10.56-2.35-2.11,12.15-2.11,12.15-14.95-34.09,15.35-34.09c0,0,31.23-1.89,16.22,32.77Z" transform="translate(-67.66 -187.36)"/><path class="cls-14" d="M779.44,371.93l0,0S779.44,371.93,779.44,371.93Z" transform="translate(-67.66 -187.36)"/><path class="cls-17" d="M795.77,323.22c.26-.57.44-.94.44-.94A2.92,2.92,0,0,0,795.77,323.22Z" transform="translate(-67.66 -187.36)"/><path class="cls-10" d="M709.69,476.79a17,17,0,0,0,9.76,3.12s5.92-6.52,10.9-12.83c3.23-4.08,6.07-8.08,6.65-10.15,1.49-5.28,29.33-6.77,32.73-10.49s-13.82-13-13.82-13-28.26,4.32-32.51,9.87c-1.69,2.21-4.21,8-6.63,14.1C713.12,466.65,709.69,476.79,709.69,476.79Z" transform="translate(-67.66 -187.36)"/><path class="cls-15" d="M749.24,399.32s-5.36-10.4-8-10.1,6.08,21.53,6.87,31.84S749.24,399.32,749.24,399.32Z" transform="translate(-67.66 -187.36)"/><path class="cls-14" d="M732.48,470.9a156.3,156.3,0,0,0,9.14,18.23l.07.11h.09c.9,0,8.65-.18,9.41-3.29,0,0,.25-10.78-.18-19.35a45.43,45.43,0,0,0-1.06-9s42.08-.28,41.34-12.19-22.74-18.2-35.38-12c0,0-16.77,6.09-25.6,14.14C726,451.49,728.64,461.62,732.48,470.9Z" transform="translate(-67.66 -187.36)"/><path class="cls-18" d="M790,428.73s5.6,8.24,4.28,15.92S777,456.44,765.84,456.93c0,0-32-7.33-27-20.09C739.93,434,790,428.73,790,428.73Z" transform="translate(-67.66 -187.36)"/><path class="cls-19" d="M778.42,327.54s5.08-10.68,17.35-4.32.33,30.6,6.77,36.59-2.34,9.91-1,14.21-2.43,9.17-11,8.6S772.86,382.51,769,375s-3-24-1.5-26.37S778.42,327.54,778.42,327.54Z" transform="translate(-67.66 -187.36)"/><path class="cls-14" d="M758.53,384.55,779.4,372c-.12,0-.54-.68-2.1-5.19a25.44,25.44,0,0,1-1.19-4.92c0-.13,0-.26-.05-.39a13.33,13.33,0,0,1,0-3l-4.58,1.65L763,363.14a10.38,10.38,0,0,1-.66,4.69,3.76,3.76,0,0,1-3.22,2.53Z" transform="translate(-67.66 -187.36)"/><path class="cls-20" d="M762.32,367.83a15.71,15.71,0,0,0,13.79-6c.15-.2.22-.31.22-.31l-.27-.08-4.63-1.38L763,363.14A10.38,10.38,0,0,1,762.32,367.83Z" transform="translate(-67.66 -187.36)"/><path class="cls-14" d="M761.91,364.89s18.16,2,18.53-10.28,3-17.89-9.51-19-15.53,3.44-16.27,7.59C752.35,356.18,756.8,364.34,761.91,364.89Z" transform="translate(-67.66 -187.36)"/><path class="cls-19" d="M770,341.62c6.42-1.62,4,9.76,5.59,9,1.81-.87,4.93-.86,4.44,1.33s-1.2,3-1.57,4.35,0,4.08,1.49,3.53S795.3,343.4,785.49,331s-39.06-4.74-29.85,8.19C757.26,341.5,765.38,342.78,770,341.62Z" transform="translate(-67.66 -187.36)"/><path class="cls-21" d="M746.64,433.39a31.32,31.32,0,0,0,14,2.76c5.47-.09,17.1-2.46,24.57-5.16,4.25-1.53,7.16-3.17,6.81-4.55-.5-2-4.15-17.2-7.52-31.28-3.08-12.87-5.93-24.8-5.93-24.8s-8.5,6-13.45,3.91-4.32-4.54-4.32-4.54a59.64,59.64,0,0,0-7.43-.53c-2.52.3-11.45,3.55-11.45,3.55s-1.18,3.3,1.94,8.45c2.57,4.26,5.08,5.09,5.08,5.09S741.68,409.29,746.64,433.39Z" transform="translate(-67.66 -187.36)"/><path class="cls-14" d="M774,412.85s-5.24-1-7.29.36-2.66,3.45-1.19,4.3c4.63,2.69,9.32-.28,9.32-.28Z" transform="translate(-67.66 -187.36)"/><path class="cls-9" d="M785.25,431c4.25-1.53,7.16-3.17,6.81-4.55-.5-2-4.15-17.2-7.52-31.28-1-1.82-1.62-2.91-1.62-2.91S776.52,421.48,785.25,431Z" transform="translate(-67.66 -187.36)"/><path class="cls-14" d="M778.4,372s16.15,3.42,22.52,28.53a7.59,7.59,0,0,1-1.72,7c-2.93,3.25-9.38,8-24.4,9.74-1.64.19-1.86-4-1.86-4,.17.33,10.2-6.48,14.47-10.15a2.34,2.34,0,0,0,.19-2.9,66.82,66.82,0,0,1-4.68-8C781.73,389.39,773.89,373.3,778.4,372Z" transform="translate(-67.66 -187.36)"/><path class="cls-21" d="M778.61,370.36s9.5.68,17.24,11c0,0-2.62,9.5-14.92,12C780.93,393.39,773.35,376.29,778.61,370.36Z" transform="translate(-67.66 -187.36)"/><path class="cls-2" d="M732.48,470.9a156.3,156.3,0,0,0,9.14,18.23l.16.11c.9,0,8.65-.18,9.41-3.29,0,0,.25-10.78-.18-19.35C749.78,467.79,745,471.32,732.48,470.9Z" transform="translate(-67.66 -187.36)"/><path class="cls-2" d="M709.69,476.79a17,17,0,0,0,9.76,3.12s5.92-6.52,10.9-12.83c-5.61-2.42-11.53-7.77-13.58-9.71C713.12,466.65,709.69,476.79,709.69,476.79Z" transform="translate(-67.66 -187.36)"/><path class="cls-18" d="M729.72,500.88a1.78,1.78,0,0,0,2.12,1.41,83.24,83.24,0,0,0,8.27-2c2.47-.9,7.21-3.7,9.69-4.6.84-.31,2.89-1.14,4.21-1.67a1.48,1.48,0,0,0,.86-1.78,31.83,31.83,0,0,0-2.49-6.23,2.38,2.38,0,0,0-1-.91,9.57,9.57,0,0,1-6,2.17,13.15,13.15,0,0,1-5.42-1.14c-.17.34-3.54,7.14-5.93,8C731.83,494.93,729,497,729.72,500.88Z" transform="translate(-67.66 -187.36)"/><path class="cls-18" d="M694.42,476.87a1.78,1.78,0,0,0,.78,2.42,81.72,81.72,0,0,0,7.74,3.55c2.5.82,8,1.56,10.46,2.39.86.28,3,.9,4.34,1.29a1.47,1.47,0,0,0,1.78-.86,30.93,30.93,0,0,0,1.89-6.43,2.21,2.21,0,0,0-.24-1.36,9.58,9.58,0,0,1-6.06-2,13.13,13.13,0,0,1-3.55-4.26c-.35.17-7.21,3.42-9.62,2.62C699.77,473.51,696.29,473.37,694.42,476.87Z" transform="translate(-67.66 -187.36)"/><path class="cls-11" d="M728.46,463.27s1.21,7,5.77,10.24c0,0,18.53-2.54,35.78-6.91,12.69-3.21,24.68-7.39,28.11-12.27,8.1-11.5-4.24-25.5-4.24-25.5s-23.79,11.48-49.54,25.55C739.06,457.26,733.71,460.25,728.46,463.27Z" transform="translate(-67.66 -187.36)"/><path class="cls-14" d="M756.34,473.51s5.5.45,7.59,2.53,5.23,8.14,3,10.54-13-2.86-13.26-3.72S756.34,473.51,756.34,473.51Z" transform="translate(-67.66 -187.36)"/><path class="cls-15" d="M728.46,463.27s1.21,7,5.77,10.24c0,0,18.53-2.54,35.78-6.91-8.1-7.05-18.7-10.56-25.67-12.22C739.06,457.26,733.71,460.25,728.46,463.27Z" transform="translate(-67.66 -187.36)"/><path class="cls-11" d="M757.08,471.6C731.2,452.81,712.84,446,712.31,446c-3.28-13.71-6.26-35-18.65-67.56,0,0-24.36.33-28.07,9.13-5.29,12.57-9.13,53.34,31.17,79.66.23.17.49.33.77.5l.33.22h0c12.46,7.3,57,17.14,57,17.14C759.79,479,757.08,471.6,757.08,471.6Z" transform="translate(-67.66 -187.36)"/><path class="cls-16" d="M839.38,367.89c-.16-.87-2.21-10.21-16.65-8.62,0,0,7.19-.18,8.86,2.75,0,0-5.37-3.14-9.11-1.34s-5,9-4.74,11.27,3.54,9.22,6.12,9.48a7.64,7.64,0,0,0,3-.43,35.14,35.14,0,0,0-1.43,3.73c-4,12.6,3.56,23.25,8.23,21.27,3-1.27,4.65,3.92,4.65,3.92L865,381S850.56,359.66,839.38,367.89Z" transform="translate(-67.66 -187.36)"/><path class="cls-18" d="M874.16,715.72l-6.5,2.42S839.46,679,836,644.62a52.34,52.34,0,0,1,.93-17.6s-.28-1.57-.76-4.36c-.22-1.29-.5-2.86-.81-4.65-.92-5.25-2.18-12.44-3.62-20.62-3.32-18.84-7.62-42.91-11-60.61l1.75-.57,18.93-6.1,3.91-12.43,14.1-3.71s3.15,6.16,6,35.26c.52,3.81,1,8,1.35,12.59a249.43,249.43,0,0,1-1.34,51q-1,7.59-2.48,15.65a70,70,0,0,0-.54,15.44C863.83,672,874.16,715.72,874.16,715.72Z" transform="translate(-67.66 -187.36)"/><path class="cls-22" d="M866.77,561.82l-30.61,60.84c-.22-1.29-.5-2.86-.81-4.65-.92-5.25-2.18-12.44-3.62-20.62-3.32-18.84-7.62-42.91-11-60.61l1.75-.57,18.93-6.1,3.91-12.43,14.1-3.71s3.15,6.16,6,35.26C865.94,553,866.41,557.25,866.77,561.82Z" transform="translate(-67.66 -187.36)"/><path class="cls-18" d="M853.3,521.78l0,.15c-.1.4-.4,1.63-.82,3.39-2,8.37-7,28.7-7.31,28.69-2.73,19.06-6.83,43.76-11.93,62.74-2.7,10-5.67,18.49-8.87,23.65a43.8,43.8,0,0,0-3.54,8.52c-7.37,22.27-16.43,72.66-16.43,72.66l-4.13,1.67s-15.93-45.29-2.13-82.06a70.16,70.16,0,0,1,5.19-10.91,2.08,2.08,0,0,0,.34-1.32v0c-.18-1.53-.63-5.36-1.13-10.75-1.41-14.87-2.76-65.13-3.49-77a62.62,62.62,0,0,1,.34-12,45,45,0,0,1,4.82-15.69,25.65,25.65,0,0,1,4.83-6.65s31.72,12,43.59,8.81Z" transform="translate(-67.66 -187.36)"/><path class="cls-19" d="M853.27,524.78a9.68,9.68,0,0,1-.82.54c-10.94,6.39-49.31,4.15-53.09,3.91a45,45,0,0,1,4.82-15.69c16.41,1.46,43.61,4.41,49.09,8.39C854.52,522.83,854.64,523.78,853.27,524.78Z" transform="translate(-67.66 -187.36)"/><path class="cls-20" d="M914.48,511.82l-1.92,5.69s-.39-.06-1.06-.24c-2.1-.52-7.22-1.75-13-3.43-8.64-2.46-18.81-5.89-22.51-9.2-5.63-5-13.89-18.73-18.53-31.8a9.09,9.09,0,0,1-.33-1c-2.39-6.92-3.73-13.6-3-18.62a25.26,25.26,0,0,1,2.25-7.78,20.47,20.47,0,0,1,4.87-6.51,3.7,3.7,0,0,1,.82-.7c2.82-2.34,4.8-3.92,4.8-3.92,1.25-.28,2.9,1.36,4,3a43.28,43.28,0,0,1,2.44,5.58c0,.06.08.12.07.17.16.48.32,1,.51,1.59a1.09,1.09,0,0,1,.13.37c.33,1.21.66,2.46,1,3.77,3.61,14,6.41,34.8,10.63,41.61,1.81,2.92,11.32,9.73,18.93,14.89C910,509,914.48,511.82,914.48,511.82Z" transform="translate(-67.66 -187.36)"/><path class="cls-14" d="M863.61,448a37.19,37.19,0,0,1-13.07,5.13c-20,4-27.19-13-29.73-24.63a17,17,0,0,1,6.8-1.88c1.45-.13,3-.2,4.22-.23,2.28-1.65,5.81-8.56,6.85-19.42l.93.28L855.18,412s-.86,5-1.35,9.67c-.37,3.69-.51,7.21.16,8.09,1.22.3,2,.5,2,.5h0A99.55,99.55,0,0,1,863.61,448Z" transform="translate(-67.66 -187.36)"/><path class="cls-18" d="M870.58,460.56c-.09.42-.2.84-.33,1.27-3.51,11.76-6.36,58.77-6.36,58.77,2.54,8-61.89,7.33-63.14-.11-3.37-7.6,4.88-21.79,9.65-29a18.62,18.62,0,0,0,1.53-2.85,18,18,0,0,0,1.49-7.91c-.42-10.75-2.29-20.61-3.07-26.66h0c1-1,2-1.9,2.86-2.77a28.15,28.15,0,0,0,3.41-3.79,5.89,5.89,0,0,0,1.33-3.93,20.51,20.51,0,0,0-.52-3.07c-.12-.48-.25-1-.4-1.43a42.27,42.27,0,0,0-4.34-9.35c5.1-3,14.92-3.07,14.92-3.07s.07.53.19,1.41c.48,3.52,1.82,12.56,3.2,14.11,1.72,1.92,28.89,7.51,29.83,4.42s-4.68-15.83-4.89-16.31h0c9.13,2.13,12.64,4.53,12.64,4.53C863.86,439,873.06,449.28,870.58,460.56Z" transform="translate(-67.66 -187.36)"/><path class="cls-20" d="M855.18,412s-.86,5-1.34,9.67c-8.87-1.14-12.75-9.72-14.23-14.41Z" transform="translate(-67.66 -187.36)"/><path class="cls-14" d="M857.7,416.78s-21.06-1.76-19.77-14.86-.54-22.15,13-21.58,15.62,5.83,16.25,10.31S863.21,416.9,857.7,416.78Z" transform="translate(-67.66 -187.36)"/><path class="cls-16" d="M867.24,383.3c-2.85-4.27-5.4-3.65-6.89-2.6-10.86-7.47-19.2,1.13-19.2,1.13a25.13,25.13,0,0,1-9.67,14s3.6,2.76,12.66,1.37a15.13,15.13,0,0,0,7.65-4.22,49.22,49.22,0,0,1-9.47,9.46c11-3.82,16.75-18.07,17.33-19.58,1.16,1.28,3.44,4,4,6.57.71,3.44.5,10.35,2.52,10.32C866.14,399.71,871.53,389.7,867.24,383.3Z" transform="translate(-67.66 -187.36)"/><path class="cls-22" d="M844.7,507.72c-12.44,1.68-24.84-9.7-32.77-19.08a18,18,0,0,0,1.49-7.91c-.42-10.75-2.29-20.61-3.07-26.66h0c1-1,2-1.9,2.86-2.77a28.15,28.15,0,0,0,3.41-3.79C829.3,463.24,861.58,505.46,844.7,507.72Z" transform="translate(-67.66 -187.36)"/><path class="cls-20" d="M888.13,512l2.2,7.47s-5.56-1.26-9-1.6c-1-.11-1.64-.2-1.64-.2-2.79-.3-6.14-.75-9.78-1.23h0c-6.24-.94-13.25-2.11-19.2-3.57a51.4,51.4,0,0,1-10.37-3.58,8.14,8.14,0,0,1-.73-.43c-6.08-3.66-13.95-15.31-20.38-28-.89-1.75-1.73-3.5-2.57-5.2a132.83,132.83,0,0,1-7.19-18.12,52.87,52.87,0,0,1-2.1-8.75,22.92,22.92,0,0,1-.26-2.49c0-.45-.07-.89-.08-1.32a22.58,22.58,0,0,1,15.87-5.76l.49.83c3.33,6.08,7,14,10.43,21.88,1.9,4.33,3.75,8.65,5.58,12.64,1.05,2.42,2.09,4.7,3.06,6.79a66.09,66.09,0,0,0,4.94,9.18c.9,1.31,3.32,3,6.49,4.92a217.74,217.74,0,0,0,20.43,10.35c2.88,1.33,5.59,2.53,7.85,3.52C885.72,511,888.13,512,888.13,512Z" transform="translate(-67.66 -187.36)"/><path class="cls-18" d="M823.28,440.11c-9.65-1.78-16.28,6.21-16.28,6.21-1.11-14.19,5.77-16.74,5.77-16.74C815.51,428.16,819.23,432.79,823.28,440.11Z" transform="translate(-67.66 -187.36)"/><path class="cls-22" d="M824.26,726.62h-32.7s-.78-5,.93-8.76,4.2-5.28,3.58-9.67a11.77,11.77,0,0,0,10.19,3.9c.58.94,3.74,6,5.68,7.36C814.07,721,823.6,720.44,824.26,726.62Z" transform="translate(-67.66 -187.36)"/><path class="cls-22" d="M894.48,726.62h-32.7s-1.23-5.21.92-8.76c1.9-3.14,1.17-4.93-.24-7.53a12.7,12.7,0,0,0,5.51,1,11.41,11.41,0,0,0,4.86-1.71c1.41,1.6,7.44,8.43,9.32,9.79C884.29,721,893.82,720.44,894.48,726.62Z" transform="translate(-67.66 -187.36)"/><path class="cls-11" d="M852.68,409.21s.29,1.73,4.56,1.73c0,0,3.58,0,3.59-1.88A11.49,11.49,0,0,0,852.68,409.21Z" transform="translate(-67.66 -187.36)"/><path class="cls-14" d="M962.79,464.23c-1.38-.54-3.08,5.31-4.14,5.53s-.64-1.6-1.59-1.88-1.39,4.75-.65,6.69a11.94,11.94,0,0,1,.64,4.24s-6.32,24.43-7.69,27.17-23.66,22.63-23.66,22.63l4.91,15.84s26.26-24.27,28.5-30,3.26-35,3.26-35a30.7,30.7,0,0,0,2.39-8.48C965.18,466.73,964.18,464.76,962.79,464.23Z" transform="translate(-67.66 -187.36)"/><path class="cls-14" d="M894.61,526.85s-15.46-20-23-26.23c0,0-10.29-25.38-11.13-27.05a.72.72,0,0,0-.14-.2,13,13,0,0,1-.08-4.66c.45-2.29-1-7.79-2-7.29s-.18,2.42-1.4,2.39-4.23-6.19-5.66-5.33-2.17,3.23-.88,7.86a34.3,34.3,0,0,0,4,8.59l-.06,0s3.78,24.67,7.76,32,16.35,31.86,25.07,32.77S894.61,526.85,894.61,526.85Z" transform="translate(-67.66 -187.36)"/><path class="cls-11" d="M941.29,715.18a8.9,8.9,0,0,0,5.62,4.25,9.69,9.69,0,0,1,5.82,3.58,2.27,2.27,0,0,1-1.83,3.61H931.26a2.82,2.82,0,0,1-2.81-3.1c.15-1.46.3-3.15.37-4.45.14-2.84,3-5.12,3-5.12Z" transform="translate(-67.66 -187.36)"/><path class="cls-23" d="M941.76,716s-4.71,2.78-12.68,1.1c0,0-13.56-34.66-14.36-51,0-.66-.05-1.28,0-1.87C915,649,900.79,609,904.61,600.83s34.69,3.68,34.69,3.68l.62,27.83Z" transform="translate(-67.66 -187.36)"/><path class="cls-16" d="M939.92,632.34l-25.2,33.83c0-.66-.05-1.28,0-1.87C915,649,900.79,609,904.61,600.83s34.69,3.68,34.69,3.68Z" transform="translate(-67.66 -187.36)"/><path class="cls-11" d="M890.58,715.18a8.9,8.9,0,0,0,5.62,4.25A9.69,9.69,0,0,1,902,723a2.26,2.26,0,0,1-1.82,3.61H880.56a2.83,2.83,0,0,1-2.82-3.1c.15-1.46.3-3.15.37-4.45.15-2.84,3-5.12,3-5.12Z" transform="translate(-67.66 -187.36)"/><path class="cls-23" d="M921.25,605.17S894,707,893.13,716.94c0,0-5.32,2.73-14-2.09,0,0-5-45.63,0-58.1s-1-50.17,11.76-58.67S921.25,605.17,921.25,605.17Z" transform="translate(-67.66 -187.36)"/><path class="cls-14" d="M924.51,524.48,907.76,533l-3.36-11.62a35.77,35.77,0,0,0,3.1-10.61,44.3,44.3,0,0,0,.34-9.56l13.65,7a26.77,26.77,0,0,0-.54,3.12,22.54,22.54,0,0,0,.24,7.3A10,10,0,0,0,924.51,524.48Z" transform="translate(-67.66 -187.36)"/><path class="cls-11" d="M938.43,539.24c.09-1.39,8.48-7.06,8.48-7.06,1.76-10.59-5-18.21-5-18.21l-10.1,7.18A5,5,0,0,0,929,522c-1.67-.45-6.65-.06-6.65-.06.07,2.41-.57,4.66-4.8,5.22-5.62.73-10.65-3.11-13.19-5.72a21.49,21.49,0,0,0-7.68,1.1,11.39,11.39,0,0,0-4.27-1.12L884.18,514s-9.69,2.79-11.21,17.39c0,0,10.87,8.28,11.66,14.81h0l.29,2.48,1.06,8.78,1.85,15.4-5.52,30.67a4.4,4.4,0,0,0-.07.8,4.52,4.52,0,0,0,3.46,4.39s.47.08,1.35.2c5.85.82,29.62,3.66,48.25-1.4a9,9,0,0,0,6.6-9.47L938,548.54h0S938.33,540.63,938.43,539.24Z" transform="translate(-67.66 -187.36)"/><path class="cls-15" d="M894.59,585.73c-.37,10.7-1.42,19.77-7.54,23.16-.88-.12-1.35-.2-1.35-.2a4.52,4.52,0,0,1-3.46-4.39,4.4,4.4,0,0,1,.07-.8l5.52-30.67L886,557.43c.09-.27.13-.41.13-.41S895.06,572,894.59,585.73Z" transform="translate(-67.66 -187.36)"/><path class="cls-10" d="M921.19,518.66c-7.77-.2-13.69-7.85-13.69-7.85l13.45.55A22.54,22.54,0,0,0,921.19,518.66Z" transform="translate(-67.66 -187.36)"/><path class="cls-14" d="M925,514.34s-15.48,4.09-20.82-8.22c-5.76-13.29.56-23,5.82-23.62,10.48-1.3,16.57,2.7,18.41,6.92S933.49,512.16,925,514.34Z" transform="translate(-67.66 -187.36)"/><path class="cls-11" d="M918.81,507.41s.65,1.6,4.73.7c0,0,3.43-.75,3-2.56A11.29,11.29,0,0,0,918.81,507.41Z" transform="translate(-67.66 -187.36)"/><path class="cls-16" d="M906.89,510.42s-1.81-5.32-1.6-8.17c0,0-4-5.15-1.68-6.42s3.62,1.77,4.16,1.17,1.38-10.72,4.24-10.4,13.44,3.6,18.07-.4-6.61-19.62-25.67-13.59S889.24,499.84,906.89,510.42Z" transform="translate(-67.66 -187.36)"/><path class="cls-16" d="M895,480.93s-.87-2.58.06-4.42c0,0,0,2.53,1,3.66S895,480.93,895,480.93Z" transform="translate(-67.66 -187.36)"/><path class="cls-16" d="M895.4,479.12a3.82,3.82,0,0,0-3.47,1.55,3,3,0,0,1,3.34.07Z" transform="translate(-67.66 -187.36)"/><path class="cls-20" d="M888.13,512s9.6,2,10.44,3,6.9,8.17,4.12,9-7.52-2.42-9-3.14-3.34-1.4-3.34-1.4Z" transform="translate(-67.66 -187.36)"/><path class="cls-22" d="M1113.33,729.41H69.05A1.39,1.39,0,0,1,67.66,728h0a1.39,1.39,0,0,1,1.39-1.39H1113.33a1.39,1.39,0,0,1,1.39,1.39h0A1.39,1.39,0,0,1,1113.33,729.41Z" transform="translate(-67.66 -187.36)"/></svg>